<?xml version="1.0" encoding="utf-8"?>
<!-- Generated by IcoMoon.io -->
<!DOCTYPE svg PUBLIC "-//W3C//DTD SVG 1.1//EN" "http://www.w3.org/Graphics/SVG/1.1/DTD/svg11.dtd">
<svg version="1.1" xmlns="http://www.w3.org/2000/svg" xmlns:xlink="http://www.w3.org/1999/xlink" width="512" height="512" viewBox="0 0 512 512">
<g>
</g>
	<path d="M102.4 435.2c0 28.262 22.938 51.2 51.2 51.2 28.288 0 51.2-22.938 51.2-51.2s-22.912-51.2-51.2-51.2c-28.263 0-51.2 22.938-51.2 51.2zM358.4 435.2c0 28.262 22.938 51.2 51.2 51.2 28.288 0 51.2-22.938 51.2-51.2s-22.912-51.2-51.2-51.2c-28.262 0-51.2 22.938-51.2 51.2zM193.203 314.163l283.366-80.947c5.401-1.561 9.831-7.424 9.831-13.056v-140.8h-360.96v-43.52c0-5.632-4.582-10.24-10.24-10.24h-79.36c-5.632 0-10.24 4.608-10.24 10.24v40.96h49.741l50.381 231.859 4.864 24.141v38.4c0 5.632 4.608 10.24 10.214 10.24h335.386c5.606 0 10.214-4.608 10.214-10.24v-38.4h-287.949c-29.415 0-30.029-11.52-5.248-18.637z" fill="#000000" />
</svg>
