<svg xmlns="http://www.w3.org/2000/svg" width="512" height="512" viewBox="0 0 512 512"><path d="M102.4 435.2c0 28.262 22.938 51.2 51.2 51.2 28.288 0 51.2-22.938 51.2-51.2S181.888 384 153.6 384c-28.263 0-51.2 22.938-51.2 51.2zm256 0c0 28.262 22.938 51.2 51.2 51.2 28.288 0 51.2-22.938 51.2-51.2S437.888 384 409.6 384c-28.262 0-51.2 22.938-51.2 51.2zM193.203 314.163l283.366-80.947c5.401-1.561 9.831-7.424 9.831-13.056V79.36H125.44V35.84c0-5.632-4.582-10.24-10.24-10.24H35.84c-5.632 0-10.24 4.608-10.24 10.24V76.8h49.741l50.381 231.859 4.864 24.141v38.4c0 5.632 4.608 10.24 10.214 10.24h335.386c5.606 0 10.214-4.608 10.214-10.24v-38.4H198.451c-29.415 0-30.029-11.52-5.248-18.637z"/></svg>