<?xml version="1.0" encoding="utf-8"?>
<!-- Generator: Adobe Illustrator 16.0.0, SVG Export Plug-In . SVG Version: 6.00 Build 0)  -->
<!DOCTYPE svg PUBLIC "-//W3C//DTD SVG 1.1//EN" "http://www.w3.org/Graphics/SVG/1.1/DTD/svg11.dtd">
<svg version="1.1" id="Layer_1" xmlns="http://www.w3.org/2000/svg" xmlns:xlink="http://www.w3.org/1999/xlink" x="0px" y="0px"
	 width="50px" height="50px" viewBox="174.5 104.5 50 50" enable-background="new 174.5 104.5 50 50" xml:space="preserve">
<path d="M215.958,115.334h-8.167v-4.168c0-0.828-0.672-1.5-1.5-1.5h-12c-0.828,0-1.5,0.672-1.5,1.5v4.168h-8.167
	c-1.104,0-2,0.896-2,2s0.896,2,2,2h2.001v29.168c0,1.381,1.119,2.5,2.5,2.5h22.332c1.381,0,2.5-1.119,2.5-2.5v-29.168h2.001
	c1.104,0,2-0.896,2-2S217.063,115.334,215.958,115.334z M193.791,145.336c0,0.828-0.672,1.5-1.5,1.5s-1.5-0.672-1.5-1.5v-21
	c0-0.828,0.672-1.5,1.5-1.5s1.5,0.672,1.5,1.5V145.336z M201.791,145.336c0,0.828-0.672,1.5-1.5,1.5s-1.5-0.672-1.5-1.5v-21
	c0-0.828,0.672-1.5,1.5-1.5s1.5,0.672,1.5,1.5V145.336z M204.791,115.334h-9v-2.668h9V115.334z M209.791,145.336
	c0,0.828-0.672,1.5-1.5,1.5s-1.5-0.672-1.5-1.5v-21c0-0.828,0.672-1.5,1.5-1.5s1.5,0.672,1.5,1.5V145.336z"/>
</svg>
