<?xml version="1.0" encoding="utf-8"?>
<!-- Generator: Adobe Illustrator 18.0.0, SVG Export Plug-In . SVG Version: 6.00 Build 0)  -->
<!DOCTYPE svg PUBLIC "-//W3C//DTD SVG 1.1//EN" "http://www.w3.org/Graphics/SVG/1.1/DTD/svg11.dtd">
<svg version="1.1" id="图层_1" xmlns="http://www.w3.org/2000/svg" xmlns:xlink="http://www.w3.org/1999/xlink" x="0px" y="0px"
	 viewBox="0 0 44.2 44.2" enable-background="new 0 0 44.2 44.2" xml:space="preserve">
<path d="M22.1,44.2C9.9,44.2,0,34.3,0,22.1S9.9,0,22.1,0s22.1,9.9,22.1,22.1S34.3,44.2,22.1,44.2z M12.8,22.1h18.6"/>
<path fill="#FFFFFF" d="M33.2,20.2h-9.2V11c0-1.1-0.9-1.9-1.9-1.9c-1.1,0-1.9,0.9-1.9,1.9v9.2H11c-1.1,0-1.9,0.9-1.9,1.9
	c0,1.1,0.9,1.9,1.9,1.9h9.2v9.2c0,1.1,0.9,1.9,1.9,1.9c1.1,0,1.9-0.9,1.9-1.9v-9.2h9.2c1.1,0,1.9-0.9,1.9-1.9
	C35.2,21,34.3,20.2,33.2,20.2z"/>
</svg>
