<?xml version="1.0" encoding="utf-8"?>
<!-- Generator: Adobe Illustrator 18.0.0, SVG Export Plug-In . SVG Version: 6.00 Build 0)  -->
<!DOCTYPE svg PUBLIC "-//W3C//DTD SVG 1.1//EN" "http://www.w3.org/Graphics/SVG/1.1/DTD/svg11.dtd">
<svg version="1.1" id="图层_1" xmlns="http://www.w3.org/2000/svg" xmlns:xlink="http://www.w3.org/1999/xlink" x="0px" y="0px"
	 viewBox="0 0 44.2 44.2" enable-background="new 0 0 44.2 44.2" xml:space="preserve">
<path d="M22.1,44.2C9.9,44.2,0,34.3,0,22.1S9.9,0,22.1,0s22.1,9.9,22.1,22.1S34.3,44.2,22.1,44.2z M22.1,2C11,2,2,11,2,22.1
	s9,20.1,20.1,20.1s20.1-9,20.1-20.1S33.2,2,22.1,2z"/>
<line x1="12.8" y1="22.1" x2="31.4" y2="22.1"/>
<path d="M33.3,20.7H10.9c-0.8,0-1.4,0.6-1.4,1.4c0,0.8,0.6,1.4,1.4,1.4h22.4c0.8,0,1.4-0.6,1.4-1.4C34.7,21.3,34.1,20.7,33.3,20.7z"
	/>
</svg>
