<?xml version="1.0" encoding="utf-8"?>
<!-- Generated by IcoMoon.io -->
<!DOCTYPE svg PUBLIC "-//W3C//DTD SVG 1.1//EN" "http://www.w3.org/Graphics/SVG/1.1/DTD/svg11.dtd">
<svg version="1.1" xmlns="http://www.w3.org/2000/svg" xmlns:xlink="http://www.w3.org/1999/xlink" width="512" height="512" viewBox="0 0 512 512">
<g>
</g>
	<path d="M76.8 199.68c-31.104 0-56.32 25.216-56.32 56.32s25.216 56.32 56.32 56.32 56.32-25.216 56.32-56.32c0-31.104-25.216-56.32-56.32-56.32zM256 199.68c-31.104 0-56.32 25.216-56.32 56.32s25.216 56.32 56.32 56.32 56.294-25.216 56.294-56.32c0-31.104-25.19-56.32-56.294-56.32zM435.2 199.68c-31.104 0-56.32 25.216-56.32 56.32s25.216 56.32 56.32 56.32 56.32-25.216 56.32-56.32c0-31.104-25.216-56.32-56.32-56.32z" fill="#000000" />
</svg>
